<svg version="1.0" xmlns="http://www.w3.org/2000/svg" width="2560" height="2560" viewBox="0 0 1920 1920"><path d="M332 224.1c-4.8 1.9-9.3 6.2-11.6 11.3l-2.4 5.1v1439.1l2.8 5.5c1.8 3.5 4.2 6.4 7 8.4l4.4 3H1587.5l4.5-3c3.1-2.1 5.4-4.7 7.3-8.4l2.7-5.5-.2-720.5-.3-720.6-2.8-4.8c-1.5-2.6-4.7-6-6.9-7.5l-4.2-2.7-626.5-.2c-410.4-.1-627.5.2-629.1.8zM1555 960v691H365V269h1190v691z"/><path d="M677.5 418.7c-1.6.2-5.6.8-8.7 1.3-3.1.6-7.2 1.3-9.2 1.5-5.2.7-15.7 4.9-23.8 9.6-27.2 15.7-45 37.8-53.1 65.9-10.5 36.2-2.5 73.1 22.1 102.5 3.4 4.1 6.2 7.6 6.2 7.9 0 .2-3 2.1-6.7 4.2-27.1 14.9-50.2 36.3-65.3 60.4-2.9 4.7-6.5 10.4-8 12.7-4.2 6.5-10.8 23.3-14 35.5-5.4 20.5-6.4 29.8-6.5 58.3 0 28.3-.2 27.3 6.2 35.2 6.5 7.9-7.7 7.3 171.1 7.3h159.8l5.2-2.6c5.9-2.9 9.4-7 11.7-13.3 2-5.7 2-40.8.1-57.1-4.3-35.9-19.9-70.8-43.9-98-12.7-14.5-32-29.6-48.1-37.7l-8.9-4.5 4-4.1c10-10.4 19-25.6 24.7-41.5 13.3-37.3 2.3-83.3-26.6-112-18.1-17.9-39.7-28.2-65.3-31.2-8.7-.9-16.8-1.1-23-.3zm30.1 49.4c29.8 9.7 48.9 42.9 41.9 72.9-5.3 22.4-23.1 41.2-44.9 47.5-4.8 1.4-8.6 1.6-19.5 1.3-12.6-.5-14.1-.8-20.5-3.7-19-8.7-30.2-21.4-37.2-42.1-2.8-8.5-2.6-24.4.5-33.5 3.8-11.2 7.6-17.9 14.2-24.9 10.2-10.9 23.1-18.1 35.4-19.7 8.9-1.1 23.2-.1 30.1 2.2zm2.9 171.5c8.5 1.6 21.3 5.1 23 6.3.6.4 3.5 1.8 6.5 3 16.2 6.7 35.4 20.6 46.5 33.7 18.9 22.2 30.5 51.3 32.2 80.5l.6 10.9H556.7l.7-10.3c.7-11.7 3.7-28.2 6.7-37.7 5.9-18.3 23-43.1 38.7-56.2 9.8-8.2 11.5-9.4 23.8-16.1 12.3-6.9 17.9-9.1 30.6-12.3 18.1-4.6 35.3-5.1 53.3-1.8zM977.5 444.6c-11.9 4.4-17.5 20.1-11.4 32.1 2.9 5.5 9.2 10.8 14.8 12.3 2.6.7 71.6.9 214.7.8l210.9-.3 4-2.2c8.6-4.6 12.9-11.8 12.9-21.3 0-7.2-2.2-12.5-7.1-17.2-6.5-6.2 8.9-5.8-223.2-5.7-182.5 0-212.1.2-215.6 1.5zM978.5 597.2c-4 1.4-10.2 7.3-12.8 12.3-4.4 8.6-1.6 22.4 5.9 28.1 7.4 5.7-5.2 5.4 222.8 5.4h210.1l5.1-2.4c9.5-4.4 15.3-14.1 14-23.3-1.2-8.9-8.6-18.1-16.3-20.2-5.3-1.5-424.6-1.4-428.8.1zM978.5 751.1c-4.6 1.3-11 7.3-13 12.1-1 2.5-1.8 6.8-1.8 10.3 0 5 .6 6.9 3.2 11.2 3.7 6 8.2 9.7 13.6 11.2 2.9.8 64.3 1.1 212.6 1.1 226.6 0 213.9.3 221.4-5.4 7.1-5.5 10.8-16.1 8.5-24.5-1.3-5-7.7-12.4-13.2-15.2-3.6-1.9-8.7-1.9-216-1.8-119.7 0-213.6.5-215.3 1zM510.6 925.5c-15.2 5.4-19.1 27.3-6.9 38.6 1.5 1.5 4.2 3.4 6 4.3 2.9 1.5 40.8 1.6 450.5 1.6h447.2l4.5-2.8c6.6-4.1 10.5-10.8 10.9-19.1.3-5.7 0-7.3-2.5-12.1-1.8-3.4-4.5-6.6-7.2-8.5l-4.3-3-447.1-.2c-378.1-.2-447.8 0-451.1 1.2zM514 1097.9c-11 3.4-17.4 11.9-17.4 23.1 0 8.8 2.7 13.8 10.1 18.8l5.6 3.7h298.2l4.6-2.7c5.2-3 10.8-10.6 11-14.7.3-8.1-.2-13.4-1.5-16-2.2-4.2-9.9-10.6-14.4-11.9-4.5-1.4-291.8-1.6-296.2-.3zM873 1097.9c-8.4 2.6-14.2 8.4-16.6 16.6-3.3 11.7 1.1 21 12.8 27.1l4.8 2.4 266.7-.2 266.8-.3 5-3.1c14.4-8.8 13.9-30.7-.9-39.9l-4.9-3-265.6-.2c-146.1-.1-266.7.2-268.1.6zM514 1271.9c-9.9 3.1-16.5 10.9-17.7 21-1.1 9.3 7 21.1 16.5 23.9 2.9.9 30.3 1.2 104.4 1.2 113.3 0 106.6.4 113.6-7.5 6.4-7.3 8-17 4.1-25.5-2.5-5.6-5.3-8.6-10.4-11.3l-4-2.2-102-.2c-56.1-.1-103.1.2-104.5.6zM790.7 1272.4c-9.6 3.5-15 11.3-14.9 21.9 0 10.4 4.1 17.4 12.6 21.3l5.1 2.4h305.3c271.8 0 305.7-.2 308.9-1.5 13.4-5.6 19-19.8 12.7-32.3-2.9-5.9-7-9.4-13.3-11.7-3.9-1.3-38.9-1.5-308.5-1.5-251.4.1-304.7.3-307.9 1.4zM510.4 1447.4c-9.5 4.4-15.3 14.1-14 23.3 1.2 9 8.4 17.7 16.5 20.1 5.5 1.7 536.7 1.7 542.2.1 5.1-1.6 10.5-6.2 13.1-11.2 4.8-9.3 2-23.4-5.8-29.3-7.4-5.7 10.6-5.3-278.9-5.3l-268-.1-5.1 2.4zM1124.9 1446.4c-8.3 2.9-13 8.4-14.9 17.2-2.3 10.5 3.5 22.2 12.9 26.3l5 2.1H1266c150.8 0 140.9.4 148.8-5.7 4.6-3.5 8.2-11.4 8.2-18.1 0-6.8-1.8-11.1-7-16-7.9-7.7 2.8-7.2-150.4-7.2-109.4.1-137.8.3-140.7 1.4z"/></svg>