<svg xmlns="http://www.w3.org/2000/svg" width="600" height="600"><path d="M0 599.434C0 598.612 11.636 587 12.46 587c.735 0 11.789 10.638 12.599 12.125.364.669.286.875-.33.875-.444 0-3.377-2.511-6.518-5.58l-5.711-5.582-5.711 5.581C1.367 599.717 0 600.727 0 599.434zm36.668-11.536C29.975 581.24 24.5 575.444 24.5 575.015c0-1 12.017-13.015 13.016-13.015.729 0 37.984 36.918 37.984 37.64 0 1.627-4.078-2.02-19.852-17.756l-18.16-18.116-5.611 5.61-5.61 5.611 12.116 12.154c6.664 6.685 12.117 12.312 12.117 12.505 0 1.53-3.298-1.272-13.832-11.75zM100 599.697c0-.474 6.932-7.523 10.14-10.31l2.888-2.51 5.777 5.686c6.195 6.098 7.262 7.437 5.927 7.437-.441 0-3.225-2.362-6.186-5.25-2.961-2.887-5.57-5.25-5.796-5.25-.227 0-2.835 2.363-5.796 5.25-4.615 4.5-6.954 6.164-6.954 4.947zm36.918-11.549c-6.555-6.519-11.918-12.17-11.918-12.56 0-.866 11.882-13.588 12.69-13.588.614 0 37.81 37.03 37.81 37.64 0 1.626-4.063-2.005-19.734-17.638l-18.042-17.997-4.252 4.372c-2.339 2.405-4.796 4.997-5.46 5.76l-1.21 1.388 11.85 11.886c6.516 6.538 11.848 12.045 11.848 12.238 0 1.523-3.264-1.241-13.582-11.5zm63.023 10.977c.654-1.2 11.794-12.125 12.364-12.125.253 0 3.378 2.925 6.945 6.5 7.966 7.984 7.267 8.966-.89 1.25-3.053-2.888-5.77-5.25-6.037-5.25-.267 0-2.908 2.362-5.869 5.25s-5.745 5.25-6.186 5.25c-.613 0-.69-.207-.327-.875zm36.871-11c-6.634-6.531-12.257-12.183-12.495-12.56-.314-.496 1.333-2.454 5.993-7.125 3.534-3.542 6.672-6.44 6.972-6.44.655 0 37.025 35.705 37.75 37.059.402.753.33.941-.36.941-.475 0-9.028-8.144-19.007-18.098l-18.142-18.098-1.386 1.208c-4.22 3.677-9.637 9.327-9.637 10.052 0 .46 5.194 5.86 11.543 12C249.84 598.472 251.218 600 249.705 600c-.457 0-6.259-5.344-12.893-11.875zm-155.75-6.35c-3.61-3.562-6.562-6.732-6.562-7.045 0-.313 10.912-11.667 24.25-25.23S123 524.58 123 524.265c0-.69-10.146-10.765-10.841-10.765-.267 0-11.346 11.025-24.618 24.5-13.273 13.475-24.366 24.5-24.651 24.5-.285 0-5.5-4.781-11.59-10.625-6.088-5.844-11.69-11.177-12.45-11.851l-1.38-1.226-18.376 18.35C8.988 567.243.557 575.5.36 575.5c-1.629 0 2.053-4.11 18-20.096 10.098-10.122 18.705-18.396 19.126-18.386.42.01 6.27 5.28 13 11.714 7.275 6.955 12.468 11.558 12.812 11.357.318-.187 11.195-11.139 24.17-24.339 12.977-13.2 23.974-24.063 24.438-24.14.524-.086 3.307 2.331 7.328 6.365l6.483 6.505-10.731 10.885a21264.768 21264.768 0 0 1-24.718 25.016l-13.988 14.131 5.485 5.505c3.018 3.028 5.745 5.444 6.062 5.37.316-.076 11.305-11.05 24.42-24.387 13.113-13.338 24.185-24.327 24.603-24.422.457-.104 5.709 4.761 13.153 12.184 6.816 6.796 12.636 12.274 12.934 12.172.297-.101 11.278-11.096 24.4-24.434 13.123-13.338 24.18-24.445 24.572-24.683.525-.32 2.397 1.249 7.152 5.993 3.542 3.534 6.44 6.656 6.44 6.938 0 .283-10.927 11.605-24.281 25.16-13.355 13.556-24.211 24.927-24.125 25.27.086.341 2.592 2.961 5.569 5.821l5.413 5.2 7.828-7.974C220.65 553.017 236.776 537 237.41 537c.397 0 4.194 3.319 8.439 7.375 4.244 4.056 9.854 9.376 12.466 11.821l4.748 4.447 18.28-18.197c10.126-10.078 18.383-17.92 18.509-17.578.125.34-.228 1.257-.784 2.038-1.449 2.034-35.519 35.594-36.136 35.594-.282 0-6.032-5.3-12.777-11.776-6.744-6.477-12.571-11.708-12.948-11.625-.377.083-11.422 11.063-24.545 24.401-13.124 13.338-24.21 24.313-24.636 24.39-.442.08-3.57-2.664-7.268-6.376l-6.494-6.515 7.75-7.875c4.261-4.33 15.34-15.538 24.618-24.905 9.278-9.367 16.869-17.264 16.869-17.548 0-.894-10.474-10.75-11.246-10.582-.404.089-11.363 10.961-24.354 24.161-12.99 13.2-24.044 24.311-24.564 24.692-.872.637-1.937-.299-13.655-12l-12.71-12.692-24.674 25-24.674 25-6.562-6.475zm199.495-.215c-3.331-3.541-6.057-6.641-6.057-6.888 0-.74 24.953-25.386 25.325-25.014.774.775-1.518 3.358-11.681 13.166-5.872 5.665-10.911 10.741-11.2 11.28-.455.851.19 1.7 4.994 6.557l5.518 5.58 5.943-5.87c3.27-3.23 6.092-5.871 6.272-5.871.181 0 .329.356.329.792 0 1.086-11.455 12.708-12.526 12.708-.473 0-3.586-2.898-6.917-6.44zM0 549.668c0-.457 5.338-6.2 11.862-12.76l11.862-11.928-5.6-5.6-5.6-5.6-5.933 5.86C3.327 522.863.509 525.5.329 525.5c-.181 0-.329-.356-.329-.792C0 523.659 11.436 512 12.465 512c1.016 0 13.035 12.006 13.035 13.02 0 .728-24.43 25.48-25.148 25.48-.194 0-.352-.374-.352-.832zm37.441-35.927c-13.37-13.333-24.624-24.241-25.01-24.241-.384 0-2.946 2.265-5.69 5.034-5.454 5.5-6.741 6.493-6.741 5.198 0-.843 10.067-11.463 11.693-12.334.815-.437 2.743 1.278 14.25 12.674 7.319 7.248 18.537 18.35 24.93 24.672l11.623 11.493 5.502-5.485c3.026-3.017 5.501-5.714 5.5-5.993-.001-.28-10.97-11.302-24.375-24.493-13.405-13.192-24.568-24.3-24.806-24.685-.318-.513 1.284-2.421 5.993-7.14 3.534-3.543 6.72-6.441 7.08-6.441.36 0 11.79 11.067 25.4 24.594l24.744 24.595 12.132-12.095c6.672-6.652 12.356-12.094 12.63-12.094.276 0 1.39.92 2.478 2.043 1.087 1.124 12.282 12.19 24.879 24.589l22.903 22.545 5.472-5.455c3.01-3 5.471-5.684 5.47-5.963-.001-.28-10.97-11.302-24.375-24.493-13.405-13.192-24.568-24.3-24.806-24.685-.318-.513 1.284-2.421 5.993-7.14 3.534-3.543 6.72-6.441 7.08-6.441.36 0 11.792 11.07 25.404 24.6l24.75 24.598 12.107-12.099c6.658-6.654 12.34-12.099 12.626-12.099.286 0 1.41.92 2.497 2.043 1.087 1.124 12.282 12.19 24.879 24.589l22.903 22.545 5.472-5.455c3.01-3 5.471-5.684 5.47-5.963-.001-.28-10.97-11.302-24.375-24.493-13.405-13.192-24.568-24.3-24.806-24.685-.318-.513 1.284-2.421 5.993-7.14 3.534-3.543 6.713-6.441 7.065-6.441.352 0 11.679 10.912 25.171 24.25 13.493 13.337 24.8 24.25 25.127 24.25.328 0 2.842-2.265 5.586-5.034 5.462-5.509 6.741-6.494 6.741-5.192 0 1.03-11.491 12.81-12.31 12.618-.337-.078-11.766-11.132-25.4-24.565l-24.787-24.423-2.376 2.01c-4.3 3.636-8.73 8.435-8.55 9.263.095.441 11.085 11.538 24.423 24.66 13.337 13.122 24.323 24.152 24.412 24.51.204.826-11.884 13.653-12.867 13.653-.401 0-11.84-11.065-25.42-24.589l-24.69-24.589-12.096 12.09C193.686 507.56 187.94 513 187.573 513c-.368 0-11.775-11.054-25.348-24.565l-24.68-24.566-2.397 2.027c-4.319 3.652-8.751 8.451-8.572 9.281.096.441 11.087 11.538 24.424 24.66 13.338 13.122 24.323 24.152 24.412 24.51.205.828-11.885 13.653-12.87 13.653-.404 0-11.686-10.913-25.073-24.25-13.386-13.337-24.65-24.25-25.033-24.25-.382 0-5.978 5.288-12.436 11.75S87.94 513 87.552 513c-.388 0-11.705-10.969-25.148-24.375s-24.63-24.44-24.86-24.52c-.229-.08-2.819 2.148-5.755 4.951-3.585 3.422-5.29 5.397-5.189 6.01.083.503 11.063 11.65 24.4 24.771 13.338 13.122 24.323 24.152 24.412 24.51.21.848-11.9 13.656-12.9 13.644-.419-.005-11.7-10.917-25.07-24.25zm43.316-32.227-6.494-6.515 7.75-7.875c4.261-4.33 15.34-15.538 24.618-24.905 9.278-9.367 16.869-17.264 16.869-17.548 0-.762-10.322-10.671-11.117-10.671-.373 0-3.815 3.206-7.649 7.125C84.422 441.891 63.297 463 62.83 463c-.293 0-6.13-5.569-12.969-12.375L37.425 438.25l-18.431 18.625C8.857 467.119.437 475.5.282 475.5c-1.431 0 2.24-4.11 17.996-20.146 10.053-10.232 18.635-18.683 19.071-18.78.498-.11 5.417 4.447 13.2 12.225l12.408 12.4 5.204-5.224c2.863-2.874 13.727-13.888 24.143-24.475 10.417-10.588 19.249-19.445 19.627-19.683.5-.315 2.447 1.321 7.129 5.993 3.542 3.534 6.44 6.656 6.44 6.938 0 .283-10.927 11.605-24.281 25.16-13.355 13.556-24.211 24.927-24.125 25.27.086.341 2.592 2.961 5.569 5.821l5.413 5.2 7.828-7.974c25.445-25.92 40.88-41.223 41.565-41.207.43.01 6.286 5.28 13.015 11.714 7.276 6.955 12.469 11.558 12.813 11.357.318-.187 11.195-11.139 24.17-24.339 12.977-13.2 23.974-24.063 24.438-24.14.524-.086 3.307 2.331 7.328 6.365l6.483 6.505-10.731 10.885a21276.704 21276.704 0 0 1-24.718 25.016l-13.988 14.131 5.485 5.505c3.018 3.028 5.745 5.444 6.062 5.37.316-.076 11.306-11.05 24.42-24.387 14.617-14.865 24.264-24.304 24.925-24.39.826-.108 3.89 2.676 13.075 11.875 6.598 6.608 12.224 12.015 12.503 12.015.278 0 8.38-7.889 18.004-17.531 9.623-9.642 17.89-17.75 18.372-18.018.683-.38.875-.297.875.377 0 .848-34.861 36.256-36.68 37.255-.802.44-2.625-1.18-13.263-11.786-6.783-6.763-12.552-12.3-12.82-12.305-.268-.005-11.54 11.19-25.05 24.875l-24.564 24.883-6.562-6.475c-3.608-3.562-6.561-6.732-6.561-7.045 0-.313 10.912-11.667 24.25-25.23S223 424.58 223 424.265c0-.69-10.146-10.765-10.841-10.765-.267 0-11.346 11.025-24.618 24.5-13.273 13.475-24.355 24.5-24.628 24.5-.272 0-6.014-5.3-12.759-11.776-6.744-6.477-12.571-11.708-12.948-11.625-.377.083-11.422 11.063-24.545 24.401-13.124 13.338-24.21 24.313-24.636 24.39-.442.08-3.57-2.664-7.268-6.376zm200.353.44c-3.498-3.326-6.439-6.395-6.535-6.821-.168-.743 22.603-24.1 24.55-25.182.68-.378.875-.298.875.363 0 .467-5.344 6.231-11.875 12.809l-11.875 11.96 5.5 5.192c3.025 2.856 5.73 5.2 6.01 5.209.28.009 2.755-2.25 5.5-5.018 5.461-5.509 6.74-6.494 6.74-5.192 0 .827-11.312 12.726-12.098 12.726-.238 0-3.295-2.72-6.792-6.046zM0 449.668c0-.457 5.32-6.18 11.822-12.72l11.822-11.888-2.034-2.405c-1.12-1.323-3.63-3.977-5.579-5.898l-3.544-3.493-6.033 6.118C3.136 422.747.326 425.5.21 425.5c-.115 0-.21-.358-.21-.795 0-.923 11.874-13.205 12.766-13.205.813 0 12.734 12.72 12.734 13.587C25.5 425.77 1.028 450.5.352 450.5c-.194 0-.352-.374-.352-.832zm37.104-36.256L12.46 388.844l-5.901 5.828C3.313 397.877.509 400.5.328 400.5c-.18 0-.328-.356-.328-.792C0 398.807 11.364 387 12.23 387c.312 0 1.456.92 2.544 2.043 1.087 1.124 12.282 12.19 24.879 24.589l22.903 22.545 5.472-5.455c3.01-3 5.471-5.684 5.47-5.963-.001-.28-10.97-11.302-24.375-24.493-13.405-13.192-24.568-24.3-24.806-24.685-.318-.513 1.284-2.421 5.993-7.14 3.534-3.543 6.72-6.441 7.079-6.441.36 0 11.634 10.912 25.055 24.25 13.42 13.338 24.607 24.25 24.858 24.25.251 0 5.405-4.965 11.452-11.033 6.048-6.069 11.642-11.376 12.43-11.794l1.436-.76 13.565 13.414 24.938 24.662 11.373 11.248 5.502-5.485c3.026-3.017 5.501-5.714 5.5-5.993-.001-.28-10.97-11.302-24.375-24.493-13.405-13.192-24.568-24.3-24.806-24.685-.318-.513 1.284-2.421 5.993-7.14 3.534-3.543 6.72-6.441 7.08-6.441.36 0 11.792 11.07 25.404 24.6l24.75 24.598 12.107-12.099c6.658-6.654 12.34-12.099 12.626-12.099.286 0 1.41.92 2.497 2.043 1.087 1.124 12.282 12.19 24.879 24.589l22.903 22.545 5.472-5.455c3.01-3 5.471-5.684 5.47-5.963-.001-.28-10.97-11.302-24.375-24.493-13.405-13.192-24.568-24.3-24.806-24.685-.318-.513 1.284-2.421 5.993-7.14 3.534-3.543 6.72-6.441 7.08-6.441.36 0 11.787 11.065 25.393 24.588l24.738 24.588 6.06-5.963c3.427-3.372 6.155-5.695 6.279-5.345.12.34-.229 1.24-.776 2-1.552 2.159-10.872 11.132-11.562 11.132-.34 0-11.724-11.054-25.297-24.565l-24.68-24.566-2.397 2.027c-4.319 3.652-8.751 8.451-8.572 9.281.096.441 11.087 11.538 24.424 24.66 13.338 13.122 24.323 24.152 24.412 24.51.205.828-11.885 13.653-12.87 13.653-.404 0-11.686-10.912-25.073-24.25-13.386-13.338-24.65-24.25-25.033-24.25-.382 0-5.978 5.287-12.436 11.75S187.953 413 187.581 413c-.372 0-11.783-11.054-25.356-24.565l-24.68-24.566-2.397 2.027c-4.319 3.652-8.751 8.451-8.572 9.281.096.441 11.086 11.538 24.424 24.66 13.337 13.122 24.323 24.152 24.412 24.51.209.844-11.895 13.653-12.902 13.653-.42 0-10.213-9.465-21.762-21.032-11.549-11.568-22.738-22.614-24.866-24.547l-3.867-3.514L100 400.58c-6.608 6.419-12.356 11.745-12.774 11.836-.457.1-10.485-9.52-25.219-24.192L37.55 363.866l-2.4 2.029c-4.335 3.665-8.753 8.452-8.573 9.288.096.444 11.086 11.54 24.424 24.659 13.337 13.118 24.323 24.145 24.412 24.504.21.85-11.9 13.657-12.9 13.644-.419-.006-11.853-11.066-25.408-24.578zm43.957-31.637c-3.608-3.562-6.561-6.732-6.561-7.045 0-.313 10.912-11.667 24.25-25.23S123 324.58 123 324.265c0-.69-10.146-10.765-10.841-10.765-.267 0-11.346 11.025-24.618 24.5-13.273 13.475-24.366 24.5-24.651 24.5-.285 0-5.5-4.781-11.59-10.625-6.088-5.844-11.69-11.177-12.45-11.851l-1.38-1.226-18.544 18.476C8.619 367.543.279 375.476.152 375.132c-.127-.34.221-1.24.773-2 1.9-2.615 35.859-36.132 36.592-36.114.403.01 6.238 5.28 12.967 11.714 7.276 6.955 12.469 11.558 12.813 11.357.318-.187 11.195-11.139 24.17-24.339 12.977-13.2 23.974-24.063 24.438-24.14.524-.086 3.307 2.331 7.328 6.365l6.483 6.505-10.731 10.885a21272.502 21272.502 0 0 1-24.718 25.016l-13.988 14.131 5.485 5.505c3.018 3.028 5.745 5.444 6.062 5.37.316-.076 11.31-11.05 24.429-24.387 13.759-13.988 24.23-24.25 24.743-24.25.49 0 6.557 5.495 13.482 12.21l12.592 12.212 5.138-5.211a70930.19 70930.19 0 0 0 24.085-24.461c10.421-10.588 19.258-19.445 19.636-19.683.5-.315 2.447 1.321 7.129 5.993 3.542 3.534 6.44 6.656 6.44 6.938 0 .283-10.927 11.605-24.281 25.16-13.355 13.556-24.211 24.927-24.125 25.27.086.341 2.592 2.961 5.569 5.821l5.413 5.2 7.828-7.974c25.26-25.731 40.88-41.225 41.561-41.225.428 0 6.234 5.453 12.904 12.119l12.126 12.118 18.393-18.368c10.116-10.103 18.555-18.369 18.753-18.369 1.629 0-2.053 4.11-18 20.096C271.542 354.718 262.934 363 262.51 363c-.423 0-6.167-5.404-12.765-12.01-6.598-6.605-12.272-11.949-12.61-11.875-.338.074-11.352 11.047-24.475 24.385-13.124 13.338-24.21 24.313-24.636 24.39-.442.08-3.57-2.664-7.268-6.376l-6.494-6.515 7.75-7.875c4.261-4.33 15.34-15.538 24.618-24.905 9.278-9.367 16.869-17.264 16.869-17.548 0-.762-10.322-10.671-11.117-10.671-.373 0-3.815 3.206-7.649 7.125C184.557 341.752 163.3 363 162.838 363c-.288 0-6.065-5.512-12.838-12.25-6.773-6.737-12.525-12.254-12.782-12.258-.258-.004-11.522 11.19-25.032 24.875L87.623 388.25l-6.562-6.475zm199.96-.024c-3.587-3.548-6.521-6.677-6.521-6.952 0-.59 23.34-24.144 24.625-24.852.679-.374.875-.292.875.366 0 .467-5.175 6.054-11.5 12.416s-11.5 11.807-11.5 12.1c0 .568 9.698 10.297 10.569 10.602.283.1 3.116-2.376 6.295-5.5 3.723-3.66 5.865-5.437 6.02-4.995.14.403-2.352 3.278-6.051 6.976l-6.291 6.291-6.521-6.452zM0 349.668c0-.457 5.338-6.2 11.862-12.76l11.862-11.928-5.6-5.6-5.6-5.6-5.933 5.86C3.327 322.863.509 325.5.329 325.5c-.181 0-.329-.356-.329-.792C0 323.659 11.436 312 12.465 312c1.016 0 13.035 12.006 13.035 13.02 0 .728-24.43 25.48-25.148 25.48-.194 0-.352-.374-.352-.832zm43.116-30.308c-10.239-10.253-18.616-18.803-18.616-19 0-1.627 4.078 2.02 19.852 17.756l18.16 18.116 5.611-5.61 5.61-5.611-12.116-12.154c-6.664-6.685-12.117-12.312-12.117-12.505 0-.194.375-.352.832-.352 1.057 0 25.168 23.936 25.168 24.985 0 1-12.017 13.015-13.016 13.015-.414 0-9.13-8.388-19.368-18.64zm100 0c-10.239-10.253-18.616-18.803-18.616-19 0-1.627 4.078 2.02 19.852 17.756l18.16 18.116 5.611-5.61 5.61-5.611-12.241-12.318c-6.83-6.871-11.969-12.418-11.624-12.544.34-.125 1.24.223 2 .774 2.416 1.75 23.632 23.349 23.632 24.058 0 .957-12.029 13.019-12.983 13.019-.432 0-9.162-8.388-19.401-18.64zm100 0c-10.239-10.253-18.616-18.803-18.616-19 0-1.627 4.078 2.02 19.85 17.753l18.157 18.113 5.497-5.48c3.023-3.013 5.496-5.746 5.496-6.072 0-.326-5.276-5.707-11.725-11.958-6.45-6.251-11.842-11.67-11.985-12.04-.148-.387.07-.676.508-.676.834 0 24.849 23.285 25.114 24.35.21.845-11.899 13.65-12.909 13.65-.424 0-9.148-8.388-19.387-18.64zM81.132 307.375c-6.138-6.043-7.197-7.375-5.86-7.375.443 0 3.376 2.511 6.517 5.58l5.711 5.582 5.711-5.581c3.141-3.07 6.074-5.581 6.518-5.581.616 0 .694.206.33.875C99.275 302.315 88.207 313 87.5 313c-.36 0-3.225-2.531-6.368-5.625zm99.467-.545c-3.354-3.393-6.099-6.318-6.099-6.5 0-1.266 2.357.432 7.289 5.25l5.711 5.582 5.711-5.581c4.932-4.819 7.289-6.517 7.289-5.25 0 .727-12.254 12.669-13 12.669-.44 0-3.546-2.776-6.9-6.17zm100 0c-3.354-3.393-6.099-6.318-6.099-6.5 0-1.266 2.357.432 7.289 5.25l5.711 5.582 5.711-5.581c5.394-5.27 6.789-6.306 6.789-5.039 0 .887-11.594 12.458-12.483 12.458-.45 0-3.563-2.776-6.918-6.17z" style="fill:#000;fill-opacity:1"/><path style="fill:#000;fill-opacity:1" d="M0 599.434C0 598.612 11.636 587 12.46 587c.735 0 11.789 10.638 12.599 12.125.364.669.286.875-.33.875-.444 0-3.377-2.511-6.518-5.58l-5.711-5.582-5.711 5.581C1.367 599.717 0 600.727 0 599.434zm36.668-11.536C29.975 581.24 24.5 575.444 24.5 575.015c0-1 12.017-13.015 13.016-13.015.729 0 37.984 36.918 37.984 37.64 0 1.627-4.078-2.02-19.852-17.756l-18.16-18.116-5.611 5.61-5.61 5.611 12.116 12.154c6.664 6.685 12.117 12.312 12.117 12.505 0 1.53-3.298-1.272-13.832-11.75zM100 599.697c0-.474 6.932-7.523 10.14-10.31l2.888-2.51 5.777 5.686c6.195 6.098 7.262 7.437 5.927 7.437-.441 0-3.225-2.362-6.186-5.25-2.961-2.887-5.57-5.25-5.796-5.25-.227 0-2.835 2.363-5.796 5.25-4.615 4.5-6.954 6.164-6.954 4.947zm36.918-11.549c-6.555-6.519-11.918-12.17-11.918-12.56 0-.866 11.882-13.588 12.69-13.588.614 0 37.81 37.03 37.81 37.64 0 1.626-4.063-2.005-19.734-17.638l-18.042-17.997-4.252 4.372c-2.339 2.405-4.796 4.997-5.46 5.76l-1.21 1.388 11.85 11.886c6.516 6.538 11.848 12.045 11.848 12.238 0 1.523-3.264-1.241-13.582-11.5zm63.023 10.977c.654-1.2 11.794-12.125 12.364-12.125.253 0 3.378 2.925 6.945 6.5 7.966 7.984 7.267 8.966-.89 1.25-3.053-2.888-5.77-5.25-6.037-5.25-.267 0-2.908 2.362-5.869 5.25s-5.745 5.25-6.186 5.25c-.613 0-.69-.207-.327-.875zm36.871-11c-6.634-6.531-12.257-12.183-12.495-12.56-.314-.496 1.333-2.454 5.993-7.125 3.534-3.542 6.672-6.44 6.972-6.44.655 0 37.025 35.705 37.75 37.059.402.753.33.941-.36.941-.475 0-9.028-8.144-19.007-18.098l-18.142-18.098-1.386 1.208c-4.22 3.677-9.637 9.327-9.637 10.052 0 .46 5.194 5.86 11.543 12C249.84 598.472 251.218 600 249.705 600c-.457 0-6.259-5.344-12.893-11.875zm-155.75-6.35c-3.61-3.562-6.562-6.732-6.562-7.045 0-.313 10.912-11.667 24.25-25.23S123 524.58 123 524.265c0-.69-10.146-10.765-10.841-10.765-.267 0-11.346 11.025-24.618 24.5-13.273 13.475-24.366 24.5-24.651 24.5-.285 0-5.5-4.781-11.59-10.625-6.088-5.844-11.69-11.177-12.45-11.851l-1.38-1.226-18.376 18.35C8.988 567.243.557 575.5.36 575.5c-1.629 0 2.053-4.11 18-20.096 10.098-10.122 18.705-18.396 19.126-18.386.42.01 6.27 5.28 13 11.714 7.275 6.955 12.468 11.558 12.812 11.357.318-.187 11.195-11.139 24.17-24.339 12.977-13.2 23.974-24.063 24.438-24.14.524-.086 3.307 2.331 7.328 6.365l6.483 6.505-10.731 10.885a21264.768 21264.768 0 0 1-24.718 25.016l-13.988 14.131 5.485 5.505c3.018 3.028 5.745 5.444 6.062 5.37.316-.076 11.305-11.05 24.42-24.387 13.113-13.338 24.185-24.327 24.603-24.422.457-.104 5.709 4.761 13.153 12.184 6.816 6.796 12.636 12.274 12.934 12.172.297-.101 11.278-11.096 24.4-24.434 13.123-13.338 24.18-24.445 24.572-24.683.525-.32 2.397 1.249 7.152 5.993 3.542 3.534 6.44 6.656 6.44 6.938 0 .283-10.927 11.605-24.281 25.16-13.355 13.556-24.211 24.927-24.125 25.27.086.341 2.592 2.961 5.569 5.821l5.413 5.2 7.828-7.974C220.65 553.017 236.776 537 237.41 537c.397 0 4.194 3.319 8.439 7.375 4.244 4.056 9.854 9.376 12.466 11.821l4.748 4.447 18.28-18.197c10.126-10.078 18.383-17.92 18.509-17.578.125.34-.228 1.257-.784 2.038-1.449 2.034-35.519 35.594-36.136 35.594-.282 0-6.032-5.3-12.777-11.776-6.744-6.477-12.571-11.708-12.948-11.625-.377.083-11.422 11.063-24.545 24.401-13.124 13.338-24.21 24.313-24.636 24.39-.442.08-3.57-2.664-7.268-6.376l-6.494-6.515 7.75-7.875c4.261-4.33 15.34-15.538 24.618-24.905 9.278-9.367 16.869-17.264 16.869-17.548 0-.894-10.474-10.75-11.246-10.582-.404.089-11.363 10.961-24.354 24.161-12.99 13.2-24.044 24.311-24.564 24.692-.872.637-1.937-.299-13.655-12l-12.71-12.692-24.674 25-24.674 25-6.562-6.475zm199.495-.215c-3.331-3.541-6.057-6.641-6.057-6.888 0-.74 24.953-25.386 25.325-25.014.774.775-1.518 3.358-11.681 13.166-5.872 5.665-10.911 10.741-11.2 11.28-.455.851.19 1.7 4.994 6.557l5.518 5.58 5.943-5.87c3.27-3.23 6.092-5.871 6.272-5.871.181 0 .329.356.329.792 0 1.086-11.455 12.708-12.526 12.708-.473 0-3.586-2.898-6.917-6.44zM0 549.668c0-.457 5.338-6.2 11.862-12.76l11.862-11.928-5.6-5.6-5.6-5.6-5.933 5.86C3.327 522.863.509 525.5.329 525.5c-.181 0-.329-.356-.329-.792C0 523.659 11.436 512 12.465 512c1.016 0 13.035 12.006 13.035 13.02 0 .728-24.43 25.48-25.148 25.48-.194 0-.352-.374-.352-.832zm37.441-35.927c-13.37-13.333-24.624-24.241-25.01-24.241-.384 0-2.946 2.265-5.69 5.034-5.454 5.5-6.741 6.493-6.741 5.198 0-.843 10.067-11.463 11.693-12.334.815-.437 2.743 1.278 14.25 12.674 7.319 7.248 18.537 18.35 24.93 24.672l11.623 11.493 5.502-5.485c3.026-3.017 5.501-5.714 5.5-5.993-.001-.28-10.97-11.302-24.375-24.493-13.405-13.192-24.568-24.3-24.806-24.685-.318-.513 1.284-2.421 5.993-7.14 3.534-3.543 6.72-6.441 7.08-6.441.36 0 11.79 11.067 25.4 24.594l24.744 24.595 12.132-12.095c6.672-6.652 12.356-12.094 12.63-12.094.276 0 1.39.92 2.478 2.043 1.087 1.124 12.282 12.19 24.879 24.589l22.903 22.545 5.472-5.455c3.01-3 5.471-5.684 5.47-5.963-.001-.28-10.97-11.302-24.375-24.493-13.405-13.192-24.568-24.3-24.806-24.685-.318-.513 1.284-2.421 5.993-7.14 3.534-3.543 6.72-6.441 7.08-6.441.36 0 11.792 11.07 25.404 24.6l24.75 24.598 12.107-12.099c6.658-6.654 12.34-12.099 12.626-12.099.286 0 1.41.92 2.497 2.043 1.087 1.124 12.282 12.19 24.879 24.589l22.903 22.545 5.472-5.455c3.01-3 5.471-5.684 5.47-5.963-.001-.28-10.97-11.302-24.375-24.493-13.405-13.192-24.568-24.3-24.806-24.685-.318-.513 1.284-2.421 5.993-7.14 3.534-3.543 6.713-6.441 7.065-6.441.352 0 11.679 10.912 25.171 24.25 13.493 13.337 24.8 24.25 25.127 24.25.328 0 2.842-2.265 5.586-5.034 5.462-5.509 6.741-6.494 6.741-5.192 0 1.03-11.491 12.81-12.31 12.618-.337-.078-11.766-11.132-25.4-24.565l-24.787-24.423-2.376 2.01c-4.3 3.636-8.73 8.435-8.55 9.263.095.441 11.085 11.538 24.423 24.66 13.337 13.122 24.323 24.152 24.412 24.51.204.826-11.884 13.653-12.867 13.653-.401 0-11.84-11.065-25.42-24.589l-24.69-24.589-12.096 12.09C193.686 507.56 187.94 513 187.573 513c-.368 0-11.775-11.054-25.348-24.565l-24.68-24.566-2.397 2.027c-4.319 3.652-8.751 8.451-8.572 9.281.096.441 11.087 11.538 24.424 24.66 13.338 13.122 24.323 24.152 24.412 24.51.205.828-11.885 13.653-12.87 13.653-.404 0-11.686-10.913-25.073-24.25-13.386-13.337-24.65-24.25-25.033-24.25-.382 0-5.978 5.288-12.436 11.75S87.94 513 87.552 513c-.388 0-11.705-10.969-25.148-24.375s-24.63-24.44-24.86-24.52c-.229-.08-2.819 2.148-5.755 4.951-3.585 3.422-5.29 5.397-5.189 6.01.083.503 11.063 11.65 24.4 24.771 13.338 13.122 24.323 24.152 24.412 24.51.21.848-11.9 13.656-12.9 13.644-.419-.005-11.7-10.917-25.07-24.25zm43.316-32.227-6.494-6.515 7.75-7.875c4.261-4.33 15.34-15.538 24.618-24.905 9.278-9.367 16.869-17.264 16.869-17.548 0-.762-10.322-10.671-11.117-10.671-.373 0-3.815 3.206-7.649 7.125C84.422 441.891 63.297 463 62.83 463c-.293 0-6.13-5.569-12.969-12.375L37.425 438.25l-18.431 18.625C8.857 467.119.437 475.5.282 475.5c-1.431 0 2.24-4.11 17.996-20.146 10.053-10.232 18.635-18.683 19.071-18.78.498-.11 5.417 4.447 13.2 12.225l12.408 12.4 5.204-5.224c2.863-2.874 13.727-13.888 24.143-24.475 10.417-10.588 19.249-19.445 19.627-19.683.5-.315 2.447 1.321 7.129 5.993 3.542 3.534 6.44 6.656 6.44 6.938 0 .283-10.927 11.605-24.281 25.16-13.355 13.556-24.211 24.927-24.125 25.27.086.341 2.592 2.961 5.569 5.821l5.413 5.2 7.828-7.974c25.445-25.92 40.88-41.223 41.565-41.207.43.01 6.286 5.28 13.015 11.714 7.276 6.955 12.469 11.558 12.813 11.357.318-.187 11.195-11.139 24.17-24.339 12.977-13.2 23.974-24.063 24.438-24.14.524-.086 3.307 2.331 7.328 6.365l6.483 6.505-10.731 10.885a21276.704 21276.704 0 0 1-24.718 25.016l-13.988 14.131 5.485 5.505c3.018 3.028 5.745 5.444 6.062 5.37.316-.076 11.306-11.05 24.42-24.387 14.617-14.865 24.264-24.304 24.925-24.39.826-.108 3.89 2.676 13.075 11.875 6.598 6.608 12.224 12.015 12.503 12.015.278 0 8.38-7.889 18.004-17.531 9.623-9.642 17.89-17.75 18.372-18.018.683-.38.875-.297.875.377 0 .848-34.861 36.256-36.68 37.255-.802.44-2.625-1.18-13.263-11.786-6.783-6.763-12.552-12.3-12.82-12.305-.268-.005-11.54 11.19-25.05 24.875l-24.564 24.883-6.562-6.475c-3.608-3.562-6.561-6.732-6.561-7.045 0-.313 10.912-11.667 24.25-25.23S223 424.58 223 424.265c0-.69-10.146-10.765-10.841-10.765-.267 0-11.346 11.025-24.618 24.5-13.273 13.475-24.355 24.5-24.628 24.5-.272 0-6.014-5.3-12.759-11.776-6.744-6.477-12.571-11.708-12.948-11.625-.377.083-11.422 11.063-24.545 24.401-13.124 13.338-24.21 24.313-24.636 24.39-.442.08-3.57-2.664-7.268-6.376zm200.353.44c-3.498-3.326-6.439-6.395-6.535-6.821-.168-.743 22.603-24.1 24.55-25.182.68-.378.875-.298.875.363 0 .467-5.344 6.231-11.875 12.809l-11.875 11.96 5.5 5.192c3.025 2.856 5.73 5.2 6.01 5.209.28.009 2.755-2.25 5.5-5.018 5.461-5.509 6.74-6.494 6.74-5.192 0 .827-11.312 12.726-12.098 12.726-.238 0-3.295-2.72-6.792-6.046zM0 449.668c0-.457 5.32-6.18 11.822-12.72l11.822-11.888-2.034-2.405c-1.12-1.323-3.63-3.977-5.579-5.898l-3.544-3.493-6.033 6.118C3.136 422.747.326 425.5.21 425.5c-.115 0-.21-.358-.21-.795 0-.923 11.874-13.205 12.766-13.205.813 0 12.734 12.72 12.734 13.587C25.5 425.77 1.028 450.5.352 450.5c-.194 0-.352-.374-.352-.832zm37.104-36.256L12.46 388.844l-5.901 5.828C3.313 397.877.509 400.5.328 400.5c-.18 0-.328-.356-.328-.792C0 398.807 11.364 387 12.23 387c.312 0 1.456.92 2.544 2.043 1.087 1.124 12.282 12.19 24.879 24.589l22.903 22.545 5.472-5.455c3.01-3 5.471-5.684 5.47-5.963-.001-.28-10.97-11.302-24.375-24.493-13.405-13.192-24.568-24.3-24.806-24.685-.318-.513 1.284-2.421 5.993-7.14 3.534-3.543 6.72-6.441 7.079-6.441.36 0 11.634 10.912 25.055 24.25 13.42 13.338 24.607 24.25 24.858 24.25.251 0 5.405-4.965 11.452-11.033 6.048-6.069 11.642-11.376 12.43-11.794l1.436-.76 13.565 13.414 24.938 24.662 11.373 11.248 5.502-5.485c3.026-3.017 5.501-5.714 5.5-5.993-.001-.28-10.97-11.302-24.375-24.493-13.405-13.192-24.568-24.3-24.806-24.685-.318-.513 1.284-2.421 5.993-7.14 3.534-3.543 6.72-6.441 7.08-6.441.36 0 11.792 11.07 25.404 24.6l24.75 24.598 12.107-12.099c6.658-6.654 12.34-12.099 12.626-12.099.286 0 1.41.92 2.497 2.043 1.087 1.124 12.282 12.19 24.879 24.589l22.903 22.545 5.472-5.455c3.01-3 5.471-5.684 5.47-5.963-.001-.28-10.97-11.302-24.375-24.493-13.405-13.192-24.568-24.3-24.806-24.685-.318-.513 1.284-2.421 5.993-7.14 3.534-3.543 6.72-6.441 7.08-6.441.36 0 11.787 11.065 25.393 24.588l24.738 24.588 6.06-5.963c3.427-3.372 6.155-5.695 6.279-5.345.12.34-.229 1.24-.776 2-1.552 2.159-10.872 11.132-11.562 11.132-.34 0-11.724-11.054-25.297-24.565l-24.68-24.566-2.397 2.027c-4.319 3.652-8.751 8.451-8.572 9.281.096.441 11.087 11.538 24.424 24.66 13.338 13.122 24.323 24.152 24.412 24.51.205.828-11.885 13.653-12.87 13.653-.404 0-11.686-10.912-25.073-24.25-13.386-13.338-24.65-24.25-25.033-24.25-.382 0-5.978 5.287-12.436 11.75S187.953 413 187.581 413c-.372 0-11.783-11.054-25.356-24.565l-24.68-24.566-2.397 2.027c-4.319 3.652-8.751 8.451-8.572 9.281.096.441 11.086 11.538 24.424 24.66 13.337 13.122 24.323 24.152 24.412 24.51.209.844-11.895 13.653-12.902 13.653-.42 0-10.213-9.465-21.762-21.032-11.549-11.568-22.738-22.614-24.866-24.547l-3.867-3.514L100 400.58c-6.608 6.419-12.356 11.745-12.774 11.836-.457.1-10.485-9.52-25.219-24.192L37.55 363.866l-2.4 2.029c-4.335 3.665-8.753 8.452-8.573 9.288.096.444 11.086 11.54 24.424 24.659 13.337 13.118 24.323 24.145 24.412 24.504.21.85-11.9 13.657-12.9 13.644-.419-.006-11.853-11.066-25.408-24.578zm43.957-31.637c-3.608-3.562-6.561-6.732-6.561-7.045 0-.313 10.912-11.667 24.25-25.23S123 324.58 123 324.265c0-.69-10.146-10.765-10.841-10.765-.267 0-11.346 11.025-24.618 24.5-13.273 13.475-24.366 24.5-24.651 24.5-.285 0-5.5-4.781-11.59-10.625-6.088-5.844-11.69-11.177-12.45-11.851l-1.38-1.226-18.544 18.476C8.619 367.543.279 375.476.152 375.132c-.127-.34.221-1.24.773-2 1.9-2.615 35.859-36.132 36.592-36.114.403.01 6.238 5.28 12.967 11.714 7.276 6.955 12.469 11.558 12.813 11.357.318-.187 11.195-11.139 24.17-24.339 12.977-13.2 23.974-24.063 24.438-24.14.524-.086 3.307 2.331 7.328 6.365l6.483 6.505-10.731 10.885a21272.502 21272.502 0 0 1-24.718 25.016l-13.988 14.131 5.485 5.505c3.018 3.028 5.745 5.444 6.062 5.37.316-.076 11.31-11.05 24.429-24.387 13.759-13.988 24.23-24.25 24.743-24.25.49 0 6.557 5.495 13.482 12.21l12.592 12.212 5.138-5.211a70930.19 70930.19 0 0 0 24.085-24.461c10.421-10.588 19.258-19.445 19.636-19.683.5-.315 2.447 1.321 7.129 5.993 3.542 3.534 6.44 6.656 6.44 6.938 0 .283-10.927 11.605-24.281 25.16-13.355 13.556-24.211 24.927-24.125 25.27.086.341 2.592 2.961 5.569 5.821l5.413 5.2 7.828-7.974c25.26-25.731 40.88-41.225 41.561-41.225.428 0 6.234 5.453 12.904 12.119l12.126 12.118 18.393-18.368c10.116-10.103 18.555-18.369 18.753-18.369 1.629 0-2.053 4.11-18 20.096C271.542 354.718 262.934 363 262.51 363c-.423 0-6.167-5.404-12.765-12.01-6.598-6.605-12.272-11.949-12.61-11.875-.338.074-11.352 11.047-24.475 24.385-13.124 13.338-24.21 24.313-24.636 24.39-.442.08-3.57-2.664-7.268-6.376l-6.494-6.515 7.75-7.875c4.261-4.33 15.34-15.538 24.618-24.905 9.278-9.367 16.869-17.264 16.869-17.548 0-.762-10.322-10.671-11.117-10.671-.373 0-3.815 3.206-7.649 7.125C184.557 341.752 163.3 363 162.838 363c-.288 0-6.065-5.512-12.838-12.25-6.773-6.737-12.525-12.254-12.782-12.258-.258-.004-11.522 11.19-25.032 24.875L87.623 388.25l-6.562-6.475zm199.96-.024c-3.587-3.548-6.521-6.677-6.521-6.952 0-.59 23.34-24.144 24.625-24.852.679-.374.875-.292.875.366 0 .467-5.175 6.054-11.5 12.416s-11.5 11.807-11.5 12.1c0 .568 9.698 10.297 10.569 10.602.283.1 3.116-2.376 6.295-5.5 3.723-3.66 5.865-5.437 6.02-4.995.14.403-2.352 3.278-6.051 6.976l-6.291 6.291-6.521-6.452zM0 349.668c0-.457 5.338-6.2 11.862-12.76l11.862-11.928-5.6-5.6-5.6-5.6-5.933 5.86C3.327 322.863.509 325.5.329 325.5c-.181 0-.329-.356-.329-.792C0 323.659 11.436 312 12.465 312c1.016 0 13.035 12.006 13.035 13.02 0 .728-24.43 25.48-25.148 25.48-.194 0-.352-.374-.352-.832zm43.116-30.308c-10.239-10.253-18.616-18.803-18.616-19 0-1.627 4.078 2.02 19.852 17.756l18.16 18.116 5.611-5.61 5.61-5.611-12.116-12.154c-6.664-6.685-12.117-12.312-12.117-12.505 0-.194.375-.352.832-.352 1.057 0 25.168 23.936 25.168 24.985 0 1-12.017 13.015-13.016 13.015-.414 0-9.13-8.388-19.368-18.64zm100 0c-10.239-10.253-18.616-18.803-18.616-19 0-1.627 4.078 2.02 19.852 17.756l18.16 18.116 5.611-5.61 5.61-5.611-12.241-12.318c-6.83-6.871-11.969-12.418-11.624-12.544.34-.125 1.24.223 2 .774 2.416 1.75 23.632 23.349 23.632 24.058 0 .957-12.029 13.019-12.983 13.019-.432 0-9.162-8.388-19.401-18.64zm100 0c-10.239-10.253-18.616-18.803-18.616-19 0-1.627 4.078 2.02 19.85 17.753l18.157 18.113 5.497-5.48c3.023-3.013 5.496-5.746 5.496-6.072 0-.326-5.276-5.707-11.725-11.958-6.45-6.251-11.842-11.67-11.985-12.04-.148-.387.07-.676.508-.676.834 0 24.849 23.285 25.114 24.35.21.845-11.899 13.65-12.909 13.65-.424 0-9.148-8.388-19.387-18.64zM81.132 307.375c-6.138-6.043-7.197-7.375-5.86-7.375.443 0 3.376 2.511 6.517 5.58l5.711 5.582 5.711-5.581c3.141-3.07 6.074-5.581 6.518-5.581.616 0 .694.206.33.875C99.275 302.315 88.207 313 87.5 313c-.36 0-3.225-2.531-6.368-5.625zm99.467-.545c-3.354-3.393-6.099-6.318-6.099-6.5 0-1.266 2.357.432 7.289 5.25l5.711 5.582 5.711-5.581c4.932-4.819 7.289-6.517 7.289-5.25 0 .727-12.254 12.669-13 12.669-.44 0-3.546-2.776-6.9-6.17zm100 0c-3.354-3.393-6.099-6.318-6.099-6.5 0-1.266 2.357.432 7.289 5.25l5.711 5.582 5.711-5.581c5.394-5.27 6.789-6.306 6.789-5.039 0 .887-11.594 12.458-12.483 12.458-.45 0-3.563-2.776-6.918-6.17z" transform="translate(300)"/><g><path style="fill:#000;fill-opacity:1" d="M0 599.434C0 598.612 11.636 587 12.46 587c.735 0 11.789 10.638 12.599 12.125.364.669.286.875-.33.875-.444 0-3.377-2.511-6.518-5.58l-5.711-5.582-5.711 5.581C1.367 599.717 0 600.727 0 599.434zm36.668-11.536C29.975 581.24 24.5 575.444 24.5 575.015c0-1 12.017-13.015 13.016-13.015.729 0 37.984 36.918 37.984 37.64 0 1.627-4.078-2.02-19.852-17.756l-18.16-18.116-5.611 5.61-5.61 5.611 12.116 12.154c6.664 6.685 12.117 12.312 12.117 12.505 0 1.53-3.298-1.272-13.832-11.75zM100 599.697c0-.474 6.932-7.523 10.14-10.31l2.888-2.51 5.777 5.686c6.195 6.098 7.262 7.437 5.927 7.437-.441 0-3.225-2.362-6.186-5.25-2.961-2.887-5.57-5.25-5.796-5.25-.227 0-2.835 2.363-5.796 5.25-4.615 4.5-6.954 6.164-6.954 4.947zm36.918-11.549c-6.555-6.519-11.918-12.17-11.918-12.56 0-.866 11.882-13.588 12.69-13.588.614 0 37.81 37.03 37.81 37.64 0 1.626-4.063-2.005-19.734-17.638l-18.042-17.997-4.252 4.372c-2.339 2.405-4.796 4.997-5.46 5.76l-1.21 1.388 11.85 11.886c6.516 6.538 11.848 12.045 11.848 12.238 0 1.523-3.264-1.241-13.582-11.5zm63.023 10.977c.654-1.2 11.794-12.125 12.364-12.125.253 0 3.378 2.925 6.945 6.5 7.966 7.984 7.267 8.966-.89 1.25-3.053-2.888-5.77-5.25-6.037-5.25-.267 0-2.908 2.362-5.869 5.25s-5.745 5.25-6.186 5.25c-.613 0-.69-.207-.327-.875zm36.871-11c-6.634-6.531-12.257-12.183-12.495-12.56-.314-.496 1.333-2.454 5.993-7.125 3.534-3.542 6.672-6.44 6.972-6.44.655 0 37.025 35.705 37.75 37.059.402.753.33.941-.36.941-.475 0-9.028-8.144-19.007-18.098l-18.142-18.098-1.386 1.208c-4.22 3.677-9.637 9.327-9.637 10.052 0 .46 5.194 5.86 11.543 12C249.84 598.472 251.218 600 249.705 600c-.457 0-6.259-5.344-12.893-11.875zm-155.75-6.35c-3.61-3.562-6.562-6.732-6.562-7.045 0-.313 10.912-11.667 24.25-25.23S123 524.58 123 524.265c0-.69-10.146-10.765-10.841-10.765-.267 0-11.346 11.025-24.618 24.5-13.273 13.475-24.366 24.5-24.651 24.5-.285 0-5.5-4.781-11.59-10.625-6.088-5.844-11.69-11.177-12.45-11.851l-1.38-1.226-18.376 18.35C8.988 567.243.557 575.5.36 575.5c-1.629 0 2.053-4.11 18-20.096 10.098-10.122 18.705-18.396 19.126-18.386.42.01 6.27 5.28 13 11.714 7.275 6.955 12.468 11.558 12.812 11.357.318-.187 11.195-11.139 24.17-24.339 12.977-13.2 23.974-24.063 24.438-24.14.524-.086 3.307 2.331 7.328 6.365l6.483 6.505-10.731 10.885a21264.768 21264.768 0 0 1-24.718 25.016l-13.988 14.131 5.485 5.505c3.018 3.028 5.745 5.444 6.062 5.37.316-.076 11.305-11.05 24.42-24.387 13.113-13.338 24.185-24.327 24.603-24.422.457-.104 5.709 4.761 13.153 12.184 6.816 6.796 12.636 12.274 12.934 12.172.297-.101 11.278-11.096 24.4-24.434 13.123-13.338 24.18-24.445 24.572-24.683.525-.32 2.397 1.249 7.152 5.993 3.542 3.534 6.44 6.656 6.44 6.938 0 .283-10.927 11.605-24.281 25.16-13.355 13.556-24.211 24.927-24.125 25.27.086.341 2.592 2.961 5.569 5.821l5.413 5.2 7.828-7.974C220.65 553.017 236.776 537 237.41 537c.397 0 4.194 3.319 8.439 7.375 4.244 4.056 9.854 9.376 12.466 11.821l4.748 4.447 18.28-18.197c10.126-10.078 18.383-17.92 18.509-17.578.125.34-.228 1.257-.784 2.038-1.449 2.034-35.519 35.594-36.136 35.594-.282 0-6.032-5.3-12.777-11.776-6.744-6.477-12.571-11.708-12.948-11.625-.377.083-11.422 11.063-24.545 24.401-13.124 13.338-24.21 24.313-24.636 24.39-.442.08-3.57-2.664-7.268-6.376l-6.494-6.515 7.75-7.875c4.261-4.33 15.34-15.538 24.618-24.905 9.278-9.367 16.869-17.264 16.869-17.548 0-.894-10.474-10.75-11.246-10.582-.404.089-11.363 10.961-24.354 24.161-12.99 13.2-24.044 24.311-24.564 24.692-.872.637-1.937-.299-13.655-12l-12.71-12.692-24.674 25-24.674 25-6.562-6.475zm199.495-.215c-3.331-3.541-6.057-6.641-6.057-6.888 0-.74 24.953-25.386 25.325-25.014.774.775-1.518 3.358-11.681 13.166-5.872 5.665-10.911 10.741-11.2 11.28-.455.851.19 1.7 4.994 6.557l5.518 5.58 5.943-5.87c3.27-3.23 6.092-5.871 6.272-5.871.181 0 .329.356.329.792 0 1.086-11.455 12.708-12.526 12.708-.473 0-3.586-2.898-6.917-6.44zM0 549.668c0-.457 5.338-6.2 11.862-12.76l11.862-11.928-5.6-5.6-5.6-5.6-5.933 5.86C3.327 522.863.509 525.5.329 525.5c-.181 0-.329-.356-.329-.792C0 523.659 11.436 512 12.465 512c1.016 0 13.035 12.006 13.035 13.02 0 .728-24.43 25.48-25.148 25.48-.194 0-.352-.374-.352-.832zm37.441-35.927c-13.37-13.333-24.624-24.241-25.01-24.241-.384 0-2.946 2.265-5.69 5.034-5.454 5.5-6.741 6.493-6.741 5.198 0-.843 10.067-11.463 11.693-12.334.815-.437 2.743 1.278 14.25 12.674 7.319 7.248 18.537 18.35 24.93 24.672l11.623 11.493 5.502-5.485c3.026-3.017 5.501-5.714 5.5-5.993-.001-.28-10.97-11.302-24.375-24.493-13.405-13.192-24.568-24.3-24.806-24.685-.318-.513 1.284-2.421 5.993-7.14 3.534-3.543 6.72-6.441 7.08-6.441.36 0 11.79 11.067 25.4 24.594l24.744 24.595 12.132-12.095c6.672-6.652 12.356-12.094 12.63-12.094.276 0 1.39.92 2.478 2.043 1.087 1.124 12.282 12.19 24.879 24.589l22.903 22.545 5.472-5.455c3.01-3 5.471-5.684 5.47-5.963-.001-.28-10.97-11.302-24.375-24.493-13.405-13.192-24.568-24.3-24.806-24.685-.318-.513 1.284-2.421 5.993-7.14 3.534-3.543 6.72-6.441 7.08-6.441.36 0 11.792 11.07 25.404 24.6l24.75 24.598 12.107-12.099c6.658-6.654 12.34-12.099 12.626-12.099.286 0 1.41.92 2.497 2.043 1.087 1.124 12.282 12.19 24.879 24.589l22.903 22.545 5.472-5.455c3.01-3 5.471-5.684 5.47-5.963-.001-.28-10.97-11.302-24.375-24.493-13.405-13.192-24.568-24.3-24.806-24.685-.318-.513 1.284-2.421 5.993-7.14 3.534-3.543 6.713-6.441 7.065-6.441.352 0 11.679 10.912 25.171 24.25 13.493 13.337 24.8 24.25 25.127 24.25.328 0 2.842-2.265 5.586-5.034 5.462-5.509 6.741-6.494 6.741-5.192 0 1.03-11.491 12.81-12.31 12.618-.337-.078-11.766-11.132-25.4-24.565l-24.787-24.423-2.376 2.01c-4.3 3.636-8.73 8.435-8.55 9.263.095.441 11.085 11.538 24.423 24.66 13.337 13.122 24.323 24.152 24.412 24.51.204.826-11.884 13.653-12.867 13.653-.401 0-11.84-11.065-25.42-24.589l-24.69-24.589-12.096 12.09C193.686 507.56 187.94 513 187.573 513c-.368 0-11.775-11.054-25.348-24.565l-24.68-24.566-2.397 2.027c-4.319 3.652-8.751 8.451-8.572 9.281.096.441 11.087 11.538 24.424 24.66 13.338 13.122 24.323 24.152 24.412 24.51.205.828-11.885 13.653-12.87 13.653-.404 0-11.686-10.913-25.073-24.25-13.386-13.337-24.65-24.25-25.033-24.25-.382 0-5.978 5.288-12.436 11.75S87.94 513 87.552 513c-.388 0-11.705-10.969-25.148-24.375s-24.63-24.44-24.86-24.52c-.229-.08-2.819 2.148-5.755 4.951-3.585 3.422-5.29 5.397-5.189 6.01.083.503 11.063 11.65 24.4 24.771 13.338 13.122 24.323 24.152 24.412 24.51.21.848-11.9 13.656-12.9 13.644-.419-.005-11.7-10.917-25.07-24.25zm43.316-32.227-6.494-6.515 7.75-7.875c4.261-4.33 15.34-15.538 24.618-24.905 9.278-9.367 16.869-17.264 16.869-17.548 0-.762-10.322-10.671-11.117-10.671-.373 0-3.815 3.206-7.649 7.125C84.422 441.891 63.297 463 62.83 463c-.293 0-6.13-5.569-12.969-12.375L37.425 438.25l-18.431 18.625C8.857 467.119.437 475.5.282 475.5c-1.431 0 2.24-4.11 17.996-20.146 10.053-10.232 18.635-18.683 19.071-18.78.498-.11 5.417 4.447 13.2 12.225l12.408 12.4 5.204-5.224c2.863-2.874 13.727-13.888 24.143-24.475 10.417-10.588 19.249-19.445 19.627-19.683.5-.315 2.447 1.321 7.129 5.993 3.542 3.534 6.44 6.656 6.44 6.938 0 .283-10.927 11.605-24.281 25.16-13.355 13.556-24.211 24.927-24.125 25.27.086.341 2.592 2.961 5.569 5.821l5.413 5.2 7.828-7.974c25.445-25.92 40.88-41.223 41.565-41.207.43.01 6.286 5.28 13.015 11.714 7.276 6.955 12.469 11.558 12.813 11.357.318-.187 11.195-11.139 24.17-24.339 12.977-13.2 23.974-24.063 24.438-24.14.524-.086 3.307 2.331 7.328 6.365l6.483 6.505-10.731 10.885a21276.704 21276.704 0 0 1-24.718 25.016l-13.988 14.131 5.485 5.505c3.018 3.028 5.745 5.444 6.062 5.37.316-.076 11.306-11.05 24.42-24.387 14.617-14.865 24.264-24.304 24.925-24.39.826-.108 3.89 2.676 13.075 11.875 6.598 6.608 12.224 12.015 12.503 12.015.278 0 8.38-7.889 18.004-17.531 9.623-9.642 17.89-17.75 18.372-18.018.683-.38.875-.297.875.377 0 .848-34.861 36.256-36.68 37.255-.802.44-2.625-1.18-13.263-11.786-6.783-6.763-12.552-12.3-12.82-12.305-.268-.005-11.54 11.19-25.05 24.875l-24.564 24.883-6.562-6.475c-3.608-3.562-6.561-6.732-6.561-7.045 0-.313 10.912-11.667 24.25-25.23S223 424.58 223 424.265c0-.69-10.146-10.765-10.841-10.765-.267 0-11.346 11.025-24.618 24.5-13.273 13.475-24.355 24.5-24.628 24.5-.272 0-6.014-5.3-12.759-11.776-6.744-6.477-12.571-11.708-12.948-11.625-.377.083-11.422 11.063-24.545 24.401-13.124 13.338-24.21 24.313-24.636 24.39-.442.08-3.57-2.664-7.268-6.376zm200.353.44c-3.498-3.326-6.439-6.395-6.535-6.821-.168-.743 22.603-24.1 24.55-25.182.68-.378.875-.298.875.363 0 .467-5.344 6.231-11.875 12.809l-11.875 11.96 5.5 5.192c3.025 2.856 5.73 5.2 6.01 5.209.28.009 2.755-2.25 5.5-5.018 5.461-5.509 6.74-6.494 6.74-5.192 0 .827-11.312 12.726-12.098 12.726-.238 0-3.295-2.72-6.792-6.046zM0 449.668c0-.457 5.32-6.18 11.822-12.72l11.822-11.888-2.034-2.405c-1.12-1.323-3.63-3.977-5.579-5.898l-3.544-3.493-6.033 6.118C3.136 422.747.326 425.5.21 425.5c-.115 0-.21-.358-.21-.795 0-.923 11.874-13.205 12.766-13.205.813 0 12.734 12.72 12.734 13.587C25.5 425.77 1.028 450.5.352 450.5c-.194 0-.352-.374-.352-.832zm37.104-36.256L12.46 388.844l-5.901 5.828C3.313 397.877.509 400.5.328 400.5c-.18 0-.328-.356-.328-.792C0 398.807 11.364 387 12.23 387c.312 0 1.456.92 2.544 2.043 1.087 1.124 12.282 12.19 24.879 24.589l22.903 22.545 5.472-5.455c3.01-3 5.471-5.684 5.47-5.963-.001-.28-10.97-11.302-24.375-24.493-13.405-13.192-24.568-24.3-24.806-24.685-.318-.513 1.284-2.421 5.993-7.14 3.534-3.543 6.72-6.441 7.079-6.441.36 0 11.634 10.912 25.055 24.25 13.42 13.338 24.607 24.25 24.858 24.25.251 0 5.405-4.965 11.452-11.033 6.048-6.069 11.642-11.376 12.43-11.794l1.436-.76 13.565 13.414 24.938 24.662 11.373 11.248 5.502-5.485c3.026-3.017 5.501-5.714 5.5-5.993-.001-.28-10.97-11.302-24.375-24.493-13.405-13.192-24.568-24.3-24.806-24.685-.318-.513 1.284-2.421 5.993-7.14 3.534-3.543 6.72-6.441 7.08-6.441.36 0 11.792 11.07 25.404 24.6l24.75 24.598 12.107-12.099c6.658-6.654 12.34-12.099 12.626-12.099.286 0 1.41.92 2.497 2.043 1.087 1.124 12.282 12.19 24.879 24.589l22.903 22.545 5.472-5.455c3.01-3 5.471-5.684 5.47-5.963-.001-.28-10.97-11.302-24.375-24.493-13.405-13.192-24.568-24.3-24.806-24.685-.318-.513 1.284-2.421 5.993-7.14 3.534-3.543 6.72-6.441 7.08-6.441.36 0 11.787 11.065 25.393 24.588l24.738 24.588 6.06-5.963c3.427-3.372 6.155-5.695 6.279-5.345.12.34-.229 1.24-.776 2-1.552 2.159-10.872 11.132-11.562 11.132-.34 0-11.724-11.054-25.297-24.565l-24.68-24.566-2.397 2.027c-4.319 3.652-8.751 8.451-8.572 9.281.096.441 11.087 11.538 24.424 24.66 13.338 13.122 24.323 24.152 24.412 24.51.205.828-11.885 13.653-12.87 13.653-.404 0-11.686-10.912-25.073-24.25-13.386-13.338-24.65-24.25-25.033-24.25-.382 0-5.978 5.287-12.436 11.75S187.953 413 187.581 413c-.372 0-11.783-11.054-25.356-24.565l-24.68-24.566-2.397 2.027c-4.319 3.652-8.751 8.451-8.572 9.281.096.441 11.086 11.538 24.424 24.66 13.337 13.122 24.323 24.152 24.412 24.51.209.844-11.895 13.653-12.902 13.653-.42 0-10.213-9.465-21.762-21.032-11.549-11.568-22.738-22.614-24.866-24.547l-3.867-3.514L100 400.58c-6.608 6.419-12.356 11.745-12.774 11.836-.457.1-10.485-9.52-25.219-24.192L37.55 363.866l-2.4 2.029c-4.335 3.665-8.753 8.452-8.573 9.288.096.444 11.086 11.54 24.424 24.659 13.337 13.118 24.323 24.145 24.412 24.504.21.85-11.9 13.657-12.9 13.644-.419-.006-11.853-11.066-25.408-24.578zm43.957-31.637c-3.608-3.562-6.561-6.732-6.561-7.045 0-.313 10.912-11.667 24.25-25.23S123 324.58 123 324.265c0-.69-10.146-10.765-10.841-10.765-.267 0-11.346 11.025-24.618 24.5-13.273 13.475-24.366 24.5-24.651 24.5-.285 0-5.5-4.781-11.59-10.625-6.088-5.844-11.69-11.177-12.45-11.851l-1.38-1.226-18.544 18.476C8.619 367.543.279 375.476.152 375.132c-.127-.34.221-1.24.773-2 1.9-2.615 35.859-36.132 36.592-36.114.403.01 6.238 5.28 12.967 11.714 7.276 6.955 12.469 11.558 12.813 11.357.318-.187 11.195-11.139 24.17-24.339 12.977-13.2 23.974-24.063 24.438-24.14.524-.086 3.307 2.331 7.328 6.365l6.483 6.505-10.731 10.885a21272.502 21272.502 0 0 1-24.718 25.016l-13.988 14.131 5.485 5.505c3.018 3.028 5.745 5.444 6.062 5.37.316-.076 11.31-11.05 24.429-24.387 13.759-13.988 24.23-24.25 24.743-24.25.49 0 6.557 5.495 13.482 12.21l12.592 12.212 5.138-5.211a70930.19 70930.19 0 0 0 24.085-24.461c10.421-10.588 19.258-19.445 19.636-19.683.5-.315 2.447 1.321 7.129 5.993 3.542 3.534 6.44 6.656 6.44 6.938 0 .283-10.927 11.605-24.281 25.16-13.355 13.556-24.211 24.927-24.125 25.27.086.341 2.592 2.961 5.569 5.821l5.413 5.2 7.828-7.974c25.26-25.731 40.88-41.225 41.561-41.225.428 0 6.234 5.453 12.904 12.119l12.126 12.118 18.393-18.368c10.116-10.103 18.555-18.369 18.753-18.369 1.629 0-2.053 4.11-18 20.096C271.542 354.718 262.934 363 262.51 363c-.423 0-6.167-5.404-12.765-12.01-6.598-6.605-12.272-11.949-12.61-11.875-.338.074-11.352 11.047-24.475 24.385-13.124 13.338-24.21 24.313-24.636 24.39-.442.08-3.57-2.664-7.268-6.376l-6.494-6.515 7.75-7.875c4.261-4.33 15.34-15.538 24.618-24.905 9.278-9.367 16.869-17.264 16.869-17.548 0-.762-10.322-10.671-11.117-10.671-.373 0-3.815 3.206-7.649 7.125C184.557 341.752 163.3 363 162.838 363c-.288 0-6.065-5.512-12.838-12.25-6.773-6.737-12.525-12.254-12.782-12.258-.258-.004-11.522 11.19-25.032 24.875L87.623 388.25l-6.562-6.475zm199.96-.024c-3.587-3.548-6.521-6.677-6.521-6.952 0-.59 23.34-24.144 24.625-24.852.679-.374.875-.292.875.366 0 .467-5.175 6.054-11.5 12.416s-11.5 11.807-11.5 12.1c0 .568 9.698 10.297 10.569 10.602.283.1 3.116-2.376 6.295-5.5 3.723-3.66 5.865-5.437 6.02-4.995.14.403-2.352 3.278-6.051 6.976l-6.291 6.291-6.521-6.452zM0 349.668c0-.457 5.338-6.2 11.862-12.76l11.862-11.928-5.6-5.6-5.6-5.6-5.933 5.86C3.327 322.863.509 325.5.329 325.5c-.181 0-.329-.356-.329-.792C0 323.659 11.436 312 12.465 312c1.016 0 13.035 12.006 13.035 13.02 0 .728-24.43 25.48-25.148 25.48-.194 0-.352-.374-.352-.832zm43.116-30.308c-10.239-10.253-18.616-18.803-18.616-19 0-1.627 4.078 2.02 19.852 17.756l18.16 18.116 5.611-5.61 5.61-5.611-12.116-12.154c-6.664-6.685-12.117-12.312-12.117-12.505 0-.194.375-.352.832-.352 1.057 0 25.168 23.936 25.168 24.985 0 1-12.017 13.015-13.016 13.015-.414 0-9.13-8.388-19.368-18.64zm100 0c-10.239-10.253-18.616-18.803-18.616-19 0-1.627 4.078 2.02 19.852 17.756l18.16 18.116 5.611-5.61 5.61-5.611-12.241-12.318c-6.83-6.871-11.969-12.418-11.624-12.544.34-.125 1.24.223 2 .774 2.416 1.75 23.632 23.349 23.632 24.058 0 .957-12.029 13.019-12.983 13.019-.432 0-9.162-8.388-19.401-18.64zm100 0c-10.239-10.253-18.616-18.803-18.616-19 0-1.627 4.078 2.02 19.85 17.753l18.157 18.113 5.497-5.48c3.023-3.013 5.496-5.746 5.496-6.072 0-.326-5.276-5.707-11.725-11.958-6.45-6.251-11.842-11.67-11.985-12.04-.148-.387.07-.676.508-.676.834 0 24.849 23.285 25.114 24.35.21.845-11.899 13.65-12.909 13.65-.424 0-9.148-8.388-19.387-18.64zM81.132 307.375c-6.138-6.043-7.197-7.375-5.86-7.375.443 0 3.376 2.511 6.517 5.58l5.711 5.582 5.711-5.581c3.141-3.07 6.074-5.581 6.518-5.581.616 0 .694.206.33.875C99.275 302.315 88.207 313 87.5 313c-.36 0-3.225-2.531-6.368-5.625zm99.467-.545c-3.354-3.393-6.099-6.318-6.099-6.5 0-1.266 2.357.432 7.289 5.25l5.711 5.582 5.711-5.581c4.932-4.819 7.289-6.517 7.289-5.25 0 .727-12.254 12.669-13 12.669-.44 0-3.546-2.776-6.9-6.17zm100 0c-3.354-3.393-6.099-6.318-6.099-6.5 0-1.266 2.357.432 7.289 5.25l5.711 5.582 5.711-5.581c5.394-5.27 6.789-6.306 6.789-5.039 0 .887-11.594 12.458-12.483 12.458-.45 0-3.563-2.776-6.918-6.17z" transform="translate(0 -299.926)"/><path d="M0 599.434C0 598.612 11.636 587 12.46 587c.735 0 11.789 10.638 12.599 12.125.364.669.286.875-.33.875-.444 0-3.377-2.511-6.518-5.58l-5.711-5.582-5.711 5.581C1.367 599.717 0 600.727 0 599.434zm36.668-11.536C29.975 581.24 24.5 575.444 24.5 575.015c0-1 12.017-13.015 13.016-13.015.729 0 37.984 36.918 37.984 37.64 0 1.627-4.078-2.02-19.852-17.756l-18.16-18.116-5.611 5.61-5.61 5.611 12.116 12.154c6.664 6.685 12.117 12.312 12.117 12.505 0 1.53-3.298-1.272-13.832-11.75zM100 599.697c0-.474 6.932-7.523 10.14-10.31l2.888-2.51 5.777 5.686c6.195 6.098 7.262 7.437 5.927 7.437-.441 0-3.225-2.362-6.186-5.25-2.961-2.887-5.57-5.25-5.796-5.25-.227 0-2.835 2.363-5.796 5.25-4.615 4.5-6.954 6.164-6.954 4.947zm36.918-11.549c-6.555-6.519-11.918-12.17-11.918-12.56 0-.866 11.882-13.588 12.69-13.588.614 0 37.81 37.03 37.81 37.64 0 1.626-4.063-2.005-19.734-17.638l-18.042-17.997-4.252 4.372c-2.339 2.405-4.796 4.997-5.46 5.76l-1.21 1.388 11.85 11.886c6.516 6.538 11.848 12.045 11.848 12.238 0 1.523-3.264-1.241-13.582-11.5zm63.023 10.977c.654-1.2 11.794-12.125 12.364-12.125.253 0 3.378 2.925 6.945 6.5 7.966 7.984 7.267 8.966-.89 1.25-3.053-2.888-5.77-5.25-6.037-5.25-.267 0-2.908 2.362-5.869 5.25s-5.745 5.25-6.186 5.25c-.613 0-.69-.207-.327-.875zm36.871-11c-6.634-6.531-12.257-12.183-12.495-12.56-.314-.496 1.333-2.454 5.993-7.125 3.534-3.542 6.672-6.44 6.972-6.44.655 0 37.025 35.705 37.75 37.059.402.753.33.941-.36.941-.475 0-9.028-8.144-19.007-18.098l-18.142-18.098-1.386 1.208c-4.22 3.677-9.637 9.327-9.637 10.052 0 .46 5.194 5.86 11.543 12C249.84 598.472 251.218 600 249.705 600c-.457 0-6.259-5.344-12.893-11.875zm-155.75-6.35c-3.61-3.562-6.562-6.732-6.562-7.045 0-.313 10.912-11.667 24.25-25.23S123 524.58 123 524.265c0-.69-10.146-10.765-10.841-10.765-.267 0-11.346 11.025-24.618 24.5-13.273 13.475-24.366 24.5-24.651 24.5-.285 0-5.5-4.781-11.59-10.625-6.088-5.844-11.69-11.177-12.45-11.851l-1.38-1.226-18.376 18.35C8.988 567.243.557 575.5.36 575.5c-1.629 0 2.053-4.11 18-20.096 10.098-10.122 18.705-18.396 19.126-18.386.42.01 6.27 5.28 13 11.714 7.275 6.955 12.468 11.558 12.812 11.357.318-.187 11.195-11.139 24.17-24.339 12.977-13.2 23.974-24.063 24.438-24.14.524-.086 3.307 2.331 7.328 6.365l6.483 6.505-10.731 10.885a21264.768 21264.768 0 0 1-24.718 25.016l-13.988 14.131 5.485 5.505c3.018 3.028 5.745 5.444 6.062 5.37.316-.076 11.305-11.05 24.42-24.387 13.113-13.338 24.185-24.327 24.603-24.422.457-.104 5.709 4.761 13.153 12.184 6.816 6.796 12.636 12.274 12.934 12.172.297-.101 11.278-11.096 24.4-24.434 13.123-13.338 24.18-24.445 24.572-24.683.525-.32 2.397 1.249 7.152 5.993 3.542 3.534 6.44 6.656 6.44 6.938 0 .283-10.927 11.605-24.281 25.16-13.355 13.556-24.211 24.927-24.125 25.27.086.341 2.592 2.961 5.569 5.821l5.413 5.2 7.828-7.974C220.65 553.017 236.776 537 237.41 537c.397 0 4.194 3.319 8.439 7.375 4.244 4.056 9.854 9.376 12.466 11.821l4.748 4.447 18.28-18.197c10.126-10.078 18.383-17.92 18.509-17.578.125.34-.228 1.257-.784 2.038-1.449 2.034-35.519 35.594-36.136 35.594-.282 0-6.032-5.3-12.777-11.776-6.744-6.477-12.571-11.708-12.948-11.625-.377.083-11.422 11.063-24.545 24.401-13.124 13.338-24.21 24.313-24.636 24.39-.442.08-3.57-2.664-7.268-6.376l-6.494-6.515 7.75-7.875c4.261-4.33 15.34-15.538 24.618-24.905 9.278-9.367 16.869-17.264 16.869-17.548 0-.894-10.474-10.75-11.246-10.582-.404.089-11.363 10.961-24.354 24.161-12.99 13.2-24.044 24.311-24.564 24.692-.872.637-1.937-.299-13.655-12l-12.71-12.692-24.674 25-24.674 25-6.562-6.475zm199.495-.215c-3.331-3.541-6.057-6.641-6.057-6.888 0-.74 24.953-25.386 25.325-25.014.774.775-1.518 3.358-11.681 13.166-5.872 5.665-10.911 10.741-11.2 11.28-.455.851.19 1.7 4.994 6.557l5.518 5.58 5.943-5.87c3.27-3.23 6.092-5.871 6.272-5.871.181 0 .329.356.329.792 0 1.086-11.455 12.708-12.526 12.708-.473 0-3.586-2.898-6.917-6.44zM0 549.668c0-.457 5.338-6.2 11.862-12.76l11.862-11.928-5.6-5.6-5.6-5.6-5.933 5.86C3.327 522.863.509 525.5.329 525.5c-.181 0-.329-.356-.329-.792C0 523.659 11.436 512 12.465 512c1.016 0 13.035 12.006 13.035 13.02 0 .728-24.43 25.48-25.148 25.48-.194 0-.352-.374-.352-.832zm37.441-35.927c-13.37-13.333-24.624-24.241-25.01-24.241-.384 0-2.946 2.265-5.69 5.034-5.454 5.5-6.741 6.493-6.741 5.198 0-.843 10.067-11.463 11.693-12.334.815-.437 2.743 1.278 14.25 12.674 7.319 7.248 18.537 18.35 24.93 24.672l11.623 11.493 5.502-5.485c3.026-3.017 5.501-5.714 5.5-5.993-.001-.28-10.97-11.302-24.375-24.493-13.405-13.192-24.568-24.3-24.806-24.685-.318-.513 1.284-2.421 5.993-7.14 3.534-3.543 6.72-6.441 7.08-6.441.36 0 11.79 11.067 25.4 24.594l24.744 24.595 12.132-12.095c6.672-6.652 12.356-12.094 12.63-12.094.276 0 1.39.92 2.478 2.043 1.087 1.124 12.282 12.19 24.879 24.589l22.903 22.545 5.472-5.455c3.01-3 5.471-5.684 5.47-5.963-.001-.28-10.97-11.302-24.375-24.493-13.405-13.192-24.568-24.3-24.806-24.685-.318-.513 1.284-2.421 5.993-7.14 3.534-3.543 6.72-6.441 7.08-6.441.36 0 11.792 11.07 25.404 24.6l24.75 24.598 12.107-12.099c6.658-6.654 12.34-12.099 12.626-12.099.286 0 1.41.92 2.497 2.043 1.087 1.124 12.282 12.19 24.879 24.589l22.903 22.545 5.472-5.455c3.01-3 5.471-5.684 5.47-5.963-.001-.28-10.97-11.302-24.375-24.493-13.405-13.192-24.568-24.3-24.806-24.685-.318-.513 1.284-2.421 5.993-7.14 3.534-3.543 6.713-6.441 7.065-6.441.352 0 11.679 10.912 25.171 24.25 13.493 13.337 24.8 24.25 25.127 24.25.328 0 2.842-2.265 5.586-5.034 5.462-5.509 6.741-6.494 6.741-5.192 0 1.03-11.491 12.81-12.31 12.618-.337-.078-11.766-11.132-25.4-24.565l-24.787-24.423-2.376 2.01c-4.3 3.636-8.73 8.435-8.55 9.263.095.441 11.085 11.538 24.423 24.66 13.337 13.122 24.323 24.152 24.412 24.51.204.826-11.884 13.653-12.867 13.653-.401 0-11.84-11.065-25.42-24.589l-24.69-24.589-12.096 12.09C193.686 507.56 187.94 513 187.573 513c-.368 0-11.775-11.054-25.348-24.565l-24.68-24.566-2.397 2.027c-4.319 3.652-8.751 8.451-8.572 9.281.096.441 11.087 11.538 24.424 24.66 13.338 13.122 24.323 24.152 24.412 24.51.205.828-11.885 13.653-12.87 13.653-.404 0-11.686-10.913-25.073-24.25-13.386-13.337-24.65-24.25-25.033-24.25-.382 0-5.978 5.288-12.436 11.75S87.94 513 87.552 513c-.388 0-11.705-10.969-25.148-24.375s-24.63-24.44-24.86-24.52c-.229-.08-2.819 2.148-5.755 4.951-3.585 3.422-5.29 5.397-5.189 6.01.083.503 11.063 11.65 24.4 24.771 13.338 13.122 24.323 24.152 24.412 24.51.21.848-11.9 13.656-12.9 13.644-.419-.005-11.7-10.917-25.07-24.25zm43.316-32.227-6.494-6.515 7.75-7.875c4.261-4.33 15.34-15.538 24.618-24.905 9.278-9.367 16.869-17.264 16.869-17.548 0-.762-10.322-10.671-11.117-10.671-.373 0-3.815 3.206-7.649 7.125C84.422 441.891 63.297 463 62.83 463c-.293 0-6.13-5.569-12.969-12.375L37.425 438.25l-18.431 18.625C8.857 467.119.437 475.5.282 475.5c-1.431 0 2.24-4.11 17.996-20.146 10.053-10.232 18.635-18.683 19.071-18.78.498-.11 5.417 4.447 13.2 12.225l12.408 12.4 5.204-5.224c2.863-2.874 13.727-13.888 24.143-24.475 10.417-10.588 19.249-19.445 19.627-19.683.5-.315 2.447 1.321 7.129 5.993 3.542 3.534 6.44 6.656 6.44 6.938 0 .283-10.927 11.605-24.281 25.16-13.355 13.556-24.211 24.927-24.125 25.27.086.341 2.592 2.961 5.569 5.821l5.413 5.2 7.828-7.974c25.445-25.92 40.88-41.223 41.565-41.207.43.01 6.286 5.28 13.015 11.714 7.276 6.955 12.469 11.558 12.813 11.357.318-.187 11.195-11.139 24.17-24.339 12.977-13.2 23.974-24.063 24.438-24.14.524-.086 3.307 2.331 7.328 6.365l6.483 6.505-10.731 10.885a21276.704 21276.704 0 0 1-24.718 25.016l-13.988 14.131 5.485 5.505c3.018 3.028 5.745 5.444 6.062 5.37.316-.076 11.306-11.05 24.42-24.387 14.617-14.865 24.264-24.304 24.925-24.39.826-.108 3.89 2.676 13.075 11.875 6.598 6.608 12.224 12.015 12.503 12.015.278 0 8.38-7.889 18.004-17.531 9.623-9.642 17.89-17.75 18.372-18.018.683-.38.875-.297.875.377 0 .848-34.861 36.256-36.68 37.255-.802.44-2.625-1.18-13.263-11.786-6.783-6.763-12.552-12.3-12.82-12.305-.268-.005-11.54 11.19-25.05 24.875l-24.564 24.883-6.562-6.475c-3.608-3.562-6.561-6.732-6.561-7.045 0-.313 10.912-11.667 24.25-25.23S223 424.58 223 424.265c0-.69-10.146-10.765-10.841-10.765-.267 0-11.346 11.025-24.618 24.5-13.273 13.475-24.355 24.5-24.628 24.5-.272 0-6.014-5.3-12.759-11.776-6.744-6.477-12.571-11.708-12.948-11.625-.377.083-11.422 11.063-24.545 24.401-13.124 13.338-24.21 24.313-24.636 24.39-.442.08-3.57-2.664-7.268-6.376zm200.353.44c-3.498-3.326-6.439-6.395-6.535-6.821-.168-.743 22.603-24.1 24.55-25.182.68-.378.875-.298.875.363 0 .467-5.344 6.231-11.875 12.809l-11.875 11.96 5.5 5.192c3.025 2.856 5.73 5.2 6.01 5.209.28.009 2.755-2.25 5.5-5.018 5.461-5.509 6.74-6.494 6.74-5.192 0 .827-11.312 12.726-12.098 12.726-.238 0-3.295-2.72-6.792-6.046zM0 449.668c0-.457 5.32-6.18 11.822-12.72l11.822-11.888-2.034-2.405c-1.12-1.323-3.63-3.977-5.579-5.898l-3.544-3.493-6.033 6.118C3.136 422.747.326 425.5.21 425.5c-.115 0-.21-.358-.21-.795 0-.923 11.874-13.205 12.766-13.205.813 0 12.734 12.72 12.734 13.587C25.5 425.77 1.028 450.5.352 450.5c-.194 0-.352-.374-.352-.832zm37.104-36.256L12.46 388.844l-5.901 5.828C3.313 397.877.509 400.5.328 400.5c-.18 0-.328-.356-.328-.792C0 398.807 11.364 387 12.23 387c.312 0 1.456.92 2.544 2.043 1.087 1.124 12.282 12.19 24.879 24.589l22.903 22.545 5.472-5.455c3.01-3 5.471-5.684 5.47-5.963-.001-.28-10.97-11.302-24.375-24.493-13.405-13.192-24.568-24.3-24.806-24.685-.318-.513 1.284-2.421 5.993-7.14 3.534-3.543 6.72-6.441 7.079-6.441.36 0 11.634 10.912 25.055 24.25 13.42 13.338 24.607 24.25 24.858 24.25.251 0 5.405-4.965 11.452-11.033 6.048-6.069 11.642-11.376 12.43-11.794l1.436-.76 13.565 13.414 24.938 24.662 11.373 11.248 5.502-5.485c3.026-3.017 5.501-5.714 5.5-5.993-.001-.28-10.97-11.302-24.375-24.493-13.405-13.192-24.568-24.3-24.806-24.685-.318-.513 1.284-2.421 5.993-7.14 3.534-3.543 6.72-6.441 7.08-6.441.36 0 11.792 11.07 25.404 24.6l24.75 24.598 12.107-12.099c6.658-6.654 12.34-12.099 12.626-12.099.286 0 1.41.92 2.497 2.043 1.087 1.124 12.282 12.19 24.879 24.589l22.903 22.545 5.472-5.455c3.01-3 5.471-5.684 5.47-5.963-.001-.28-10.97-11.302-24.375-24.493-13.405-13.192-24.568-24.3-24.806-24.685-.318-.513 1.284-2.421 5.993-7.14 3.534-3.543 6.72-6.441 7.08-6.441.36 0 11.787 11.065 25.393 24.588l24.738 24.588 6.06-5.963c3.427-3.372 6.155-5.695 6.279-5.345.12.34-.229 1.24-.776 2-1.552 2.159-10.872 11.132-11.562 11.132-.34 0-11.724-11.054-25.297-24.565l-24.68-24.566-2.397 2.027c-4.319 3.652-8.751 8.451-8.572 9.281.096.441 11.087 11.538 24.424 24.66 13.338 13.122 24.323 24.152 24.412 24.51.205.828-11.885 13.653-12.87 13.653-.404 0-11.686-10.912-25.073-24.25-13.386-13.338-24.65-24.25-25.033-24.25-.382 0-5.978 5.287-12.436 11.75S187.953 413 187.581 413c-.372 0-11.783-11.054-25.356-24.565l-24.68-24.566-2.397 2.027c-4.319 3.652-8.751 8.451-8.572 9.281.096.441 11.086 11.538 24.424 24.66 13.337 13.122 24.323 24.152 24.412 24.51.209.844-11.895 13.653-12.902 13.653-.42 0-10.213-9.465-21.762-21.032-11.549-11.568-22.738-22.614-24.866-24.547l-3.867-3.514L100 400.58c-6.608 6.419-12.356 11.745-12.774 11.836-.457.1-10.485-9.52-25.219-24.192L37.55 363.866l-2.4 2.029c-4.335 3.665-8.753 8.452-8.573 9.288.096.444 11.086 11.54 24.424 24.659 13.337 13.118 24.323 24.145 24.412 24.504.21.85-11.9 13.657-12.9 13.644-.419-.006-11.853-11.066-25.408-24.578zm43.957-31.637c-3.608-3.562-6.561-6.732-6.561-7.045 0-.313 10.912-11.667 24.25-25.23S123 324.58 123 324.265c0-.69-10.146-10.765-10.841-10.765-.267 0-11.346 11.025-24.618 24.5-13.273 13.475-24.366 24.5-24.651 24.5-.285 0-5.5-4.781-11.59-10.625-6.088-5.844-11.69-11.177-12.45-11.851l-1.38-1.226-18.544 18.476C8.619 367.543.279 375.476.152 375.132c-.127-.34.221-1.24.773-2 1.9-2.615 35.859-36.132 36.592-36.114.403.01 6.238 5.28 12.967 11.714 7.276 6.955 12.469 11.558 12.813 11.357.318-.187 11.195-11.139 24.17-24.339 12.977-13.2 23.974-24.063 24.438-24.14.524-.086 3.307 2.331 7.328 6.365l6.483 6.505-10.731 10.885a21272.502 21272.502 0 0 1-24.718 25.016l-13.988 14.131 5.485 5.505c3.018 3.028 5.745 5.444 6.062 5.37.316-.076 11.31-11.05 24.429-24.387 13.759-13.988 24.23-24.25 24.743-24.25.49 0 6.557 5.495 13.482 12.21l12.592 12.212 5.138-5.211a70930.19 70930.19 0 0 0 24.085-24.461c10.421-10.588 19.258-19.445 19.636-19.683.5-.315 2.447 1.321 7.129 5.993 3.542 3.534 6.44 6.656 6.44 6.938 0 .283-10.927 11.605-24.281 25.16-13.355 13.556-24.211 24.927-24.125 25.27.086.341 2.592 2.961 5.569 5.821l5.413 5.2 7.828-7.974c25.26-25.731 40.88-41.225 41.561-41.225.428 0 6.234 5.453 12.904 12.119l12.126 12.118 18.393-18.368c10.116-10.103 18.555-18.369 18.753-18.369 1.629 0-2.053 4.11-18 20.096C271.542 354.718 262.934 363 262.51 363c-.423 0-6.167-5.404-12.765-12.01-6.598-6.605-12.272-11.949-12.61-11.875-.338.074-11.352 11.047-24.475 24.385-13.124 13.338-24.21 24.313-24.636 24.39-.442.08-3.57-2.664-7.268-6.376l-6.494-6.515 7.75-7.875c4.261-4.33 15.34-15.538 24.618-24.905 9.278-9.367 16.869-17.264 16.869-17.548 0-.762-10.322-10.671-11.117-10.671-.373 0-3.815 3.206-7.649 7.125C184.557 341.752 163.3 363 162.838 363c-.288 0-6.065-5.512-12.838-12.25-6.773-6.737-12.525-12.254-12.782-12.258-.258-.004-11.522 11.19-25.032 24.875L87.623 388.25l-6.562-6.475zm199.96-.024c-3.587-3.548-6.521-6.677-6.521-6.952 0-.59 23.34-24.144 24.625-24.852.679-.374.875-.292.875.366 0 .467-5.175 6.054-11.5 12.416s-11.5 11.807-11.5 12.1c0 .568 9.698 10.297 10.569 10.602.283.1 3.116-2.376 6.295-5.5 3.723-3.66 5.865-5.437 6.02-4.995.14.403-2.352 3.278-6.051 6.976l-6.291 6.291-6.521-6.452zM0 349.668c0-.457 5.338-6.2 11.862-12.76l11.862-11.928-5.6-5.6-5.6-5.6-5.933 5.86C3.327 322.863.509 325.5.329 325.5c-.181 0-.329-.356-.329-.792C0 323.659 11.436 312 12.465 312c1.016 0 13.035 12.006 13.035 13.02 0 .728-24.43 25.48-25.148 25.48-.194 0-.352-.374-.352-.832zm43.116-30.308c-10.239-10.253-18.616-18.803-18.616-19 0-1.627 4.078 2.02 19.852 17.756l18.16 18.116 5.611-5.61 5.61-5.611-12.116-12.154c-6.664-6.685-12.117-12.312-12.117-12.505 0-.194.375-.352.832-.352 1.057 0 25.168 23.936 25.168 24.985 0 1-12.017 13.015-13.016 13.015-.414 0-9.13-8.388-19.368-18.64zm100 0c-10.239-10.253-18.616-18.803-18.616-19 0-1.627 4.078 2.02 19.852 17.756l18.16 18.116 5.611-5.61 5.61-5.611-12.241-12.318c-6.83-6.871-11.969-12.418-11.624-12.544.34-.125 1.24.223 2 .774 2.416 1.75 23.632 23.349 23.632 24.058 0 .957-12.029 13.019-12.983 13.019-.432 0-9.162-8.388-19.401-18.64zm100 0c-10.239-10.253-18.616-18.803-18.616-19 0-1.627 4.078 2.02 19.85 17.753l18.157 18.113 5.497-5.48c3.023-3.013 5.496-5.746 5.496-6.072 0-.326-5.276-5.707-11.725-11.958-6.45-6.251-11.842-11.67-11.985-12.04-.148-.387.07-.676.508-.676.834 0 24.849 23.285 25.114 24.35.21.845-11.899 13.65-12.909 13.65-.424 0-9.148-8.388-19.387-18.64zM81.132 307.375c-6.138-6.043-7.197-7.375-5.86-7.375.443 0 3.376 2.511 6.517 5.58l5.711 5.582 5.711-5.581c3.141-3.07 6.074-5.581 6.518-5.581.616 0 .694.206.33.875C99.275 302.315 88.207 313 87.5 313c-.36 0-3.225-2.531-6.368-5.625zm99.467-.545c-3.354-3.393-6.099-6.318-6.099-6.5 0-1.266 2.357.432 7.289 5.25l5.711 5.582 5.711-5.581c4.932-4.819 7.289-6.517 7.289-5.25 0 .727-12.254 12.669-13 12.669-.44 0-3.546-2.776-6.9-6.17zm100 0c-3.354-3.393-6.099-6.318-6.099-6.5 0-1.266 2.357.432 7.289 5.25l5.711 5.582 5.711-5.581c5.394-5.27 6.789-6.306 6.789-5.039 0 .887-11.594 12.458-12.483 12.458-.45 0-3.563-2.776-6.918-6.17z" style="fill:#000;fill-opacity:1" transform="translate(300 -299.926)"/></g></svg>